<?xml version="1.0" encoding="UTF-8" standalone="no"?><!-- Generator: Gravit.io --><svg xmlns="http://www.w3.org/2000/svg" xmlns:xlink="http://www.w3.org/1999/xlink" style="isolation:isolate" viewBox="0 0 300 100" width="300pt" height="100pt"><defs><clipPath id="_clipPath_YIaYzcQLil50rTN2VuRL513HFH3EUQkG"><rect width="300" height="100"/></clipPath></defs><g clip-path="url(#_clipPath_YIaYzcQLil50rTN2VuRL513HFH3EUQkG)"><rect width="300" height="100" style="fill:rgb(0,0,0)" fill-opacity="0"/><path d=" M 253 70 L 253 83 L 27 83 L 27 17 L 27 17 L 253 17 L 253 30 L 253 37 L 253 37 L 253 37 L 253 63 L 253 70 Z  M 276 70 L 276 70 L 260 70 L 260 90 L 20 90 L 20 10 L 260 10 L 260 30 L 260 30 L 260 30 L 260 30 L 276 30 L 276 70 Z " fill-rule="evenodd" fill="rgb(255,255,255)"/><g><g opacity="0.3"><rect x="31" y="22" width="17.132" height="56" transform="matrix(1,0,0,1,0,0)" fill="rgb(255,255,255)"/></g><g opacity="0.3"><rect x="50.987" y="22" width="17.132" height="56" transform="matrix(1,0,0,1,0,0)" fill="rgb(255,255,255)"/></g><g opacity="0.3"><rect x="70.974" y="22" width="17.132" height="56" transform="matrix(1,0,0,1,0,0)" fill="rgb(255,255,255)"/></g><g opacity="0.3"><rect x="90.961" y="22" width="17.132" height="56" transform="matrix(1,0,0,1,0,0)" fill="rgb(255,255,255)"/></g><g opacity="0.3"><rect x="110.947" y="22" width="17.132" height="56" transform="matrix(1,0,0,1,0,0)" fill="rgb(255,255,255)"/></g><g opacity="0.3"><rect x="130.934" y="22" width="17.132" height="56" transform="matrix(1,0,0,1,0,0)" fill="rgb(255,255,255)"/></g><g opacity="0.3"><rect x="150.921" y="22" width="17.132" height="56" transform="matrix(1,0,0,1,0,0)" fill="rgb(255,255,255)"/></g><g opacity="0.3"><rect x="170.908" y="22" width="17.132" height="56" transform="matrix(1,0,0,1,0,0)" fill="rgb(255,255,255)"/></g><g opacity="0.3"><rect x="190.895" y="22" width="17.132" height="56" transform="matrix(1,0,0,1,0,0)" fill="rgb(255,255,255)"/></g><g opacity="0.3"><rect x="210.882" y="22" width="17.132" height="56" transform="matrix(1,0,0,1,0,0)" fill="rgb(255,255,255)"/></g><g opacity="0.3"><rect x="230.868" y="22" width="17.132" height="56" transform="matrix(1,0,0,1,0,0)" fill="rgb(255,255,255)"/></g></g><g><rect x="31" y="22" width="17.132" height="56" transform="matrix(1,0,0,1,0,0)" fill="rgb(255,255,255)"/><rect x="50.987" y="22" width="17.132" height="56" transform="matrix(1,0,0,1,0,0)" fill="rgb(255,255,255)"/><rect x="70.974" y="22" width="17.132" height="56" transform="matrix(1,0,0,1,0,0)" fill="rgb(255,255,255)"/><rect x="90.961" y="22" width="17.132" height="56" transform="matrix(1,0,0,1,0,0)" fill="rgb(255,255,255)"/><rect x="110.947" y="22" width="17.132" height="56" transform="matrix(1,0,0,1,0,0)" fill="rgb(255,255,255)"/><rect x="130.934" y="22" width="17.132" height="56" transform="matrix(1,0,0,1,0,0)" fill="rgb(255,255,255)"/><rect x="150.921" y="22" width="17.132" height="56" transform="matrix(1,0,0,1,0,0)" fill="rgb(255,255,255)"/><rect x="170.908" y="22" width="17.132" height="56" transform="matrix(1,0,0,1,0,0)" fill="rgb(255,255,255)"/><rect x="190.895" y="22" width="17.132" height="56" transform="matrix(1,0,0,1,0,0)" fill="rgb(255,255,255)"/><rect x="210.882" y="22" width="17.132" height="56" transform="matrix(1,0,0,1,0,0)" fill="rgb(255,255,255)"/><rect x="230.868" y="22" width="17.132" height="56" transform="matrix(1,0,0,1,0,0)" fill="rgb(255,255,255)"/></g></g></svg>