<?xml version="1.0" encoding="UTF-8" standalone="no"?><!-- Generator: Gravit.io --><svg xmlns="http://www.w3.org/2000/svg" xmlns:xlink="http://www.w3.org/1999/xlink" style="isolation:isolate" viewBox="0 0 400 400" width="400pt" height="400pt"><defs><clipPath id="_clipPath_h6rvv4ERzLC3S3a9QCNHrWDt2hcC3EqR"><rect width="400" height="400"/></clipPath></defs><g clip-path="url(#_clipPath_h6rvv4ERzLC3S3a9QCNHrWDt2hcC3EqR)"><rect width="400" height="400" style="fill:rgb(0,0,0)" fill-opacity="0"/><g style="opacity:0.11;"><g><path d=" M 107.272 109.81 L 109.074 178.81 L 107.272 109.81 Z  M 109.146 178.81 Q 133.752 198.452 136.008 220.473 Q 138.263 242.495 114.901 247.354 Q 87.88 248.68 87.246 223.542 Q 86.612 198.404 109.146 178.81 Z " fill-rule="evenodd" fill="none" vector-effect="non-scaling-stroke" stroke-width="10" stroke="rgb(0,0,0)" stroke-linejoin="miter" stroke-linecap="round" stroke-miterlimit="3"/><path d=" M 104 164.81 Q 98.5 166.385 96 158.81 Q 96.25 151.01 104 149.81 L 113 148.81 Q 118.125 149.51 119 154.81 Q 119.875 160.11 114 162.81 L 104 164.81 Z " fill="rgb(0,0,0)"/><path d=" M 111.551 142.776 Q 117.727 144.545 120.534 136.039 Q 120.253 127.28 111.551 125.932 L 101.444 124.81 Q 95.689 125.596 94.707 131.547 Q 93.724 137.498 100.321 140.53 L 111.551 142.776 Z " fill="rgb(0,0,0)"/></g><g><path d=" M 247.032 130.656 L 279.167 177.458 L 279.167 133.991 L 247.032 130.656 Z  M 227.074 128.586 L 279.167 204.454 L 279.167 347.128 C 279.167 349.817 281.35 352 284.039 352 L 315.009 352 C 317.698 352 319.881 349.817 319.881 347.128 L 319.881 138.215 L 330.536 139.321 C 333.019 139.578 335.245 137.771 335.503 135.288 L 337.837 112.79 C 338.095 110.306 336.288 108.081 333.804 107.823 L 319.881 106.378 L 319.881 94.491 C 319.881 91.802 317.698 89.619 315.009 89.619 L 284.039 89.619 C 281.35 89.619 279.167 91.802 279.167 94.491 L 279.167 102.154 L 59.325 79.343 C 56.842 79.086 54.617 80.893 54.359 83.376 L 52.024 105.874 C 51.767 108.358 53.574 110.583 56.057 110.841 L 227.074 128.586 Z " fill-rule="evenodd" fill="rgb(0,0,0)"/></g></g><g><g><path d=" M 104 164.81 Q 98.5 166.385 96 158.81 Q 96.25 151.01 104 149.81 L 113 148.81 Q 118.125 149.51 119 154.81 Q 119.875 160.11 114 162.81 L 104 164.81 Z " fill="rgb(161,171,176)"/><path d=" M 111.551 142.776 Q 117.727 144.545 120.534 136.039 Q 120.253 127.28 111.551 125.932 L 101.444 124.81 Q 95.689 125.596 94.707 131.547 Q 93.724 137.498 100.321 140.53 L 111.551 142.776 Z " fill="rgb(161,171,176)"/><path d=" M 109.074 180 Q 87.042 195.946 87.246 220.473 C 87.45 245 103.651 247.957 111.551 247.354 C 119.45 246.75 136.315 242.946 136.008 220.473 Q 135.7 198 109.074 180 Z " fill="none" vector-effect="non-scaling-stroke" stroke-width="10" stroke="rgb(161,171,176)" stroke-linejoin="miter" stroke-linecap="square" stroke-miterlimit="3"/><line x1="107.557" y1="109.81" x2="109.146" y2="180" vector-effect="non-scaling-stroke" stroke-width="10" stroke="rgb(161,171,176)" stroke-linejoin="miter" stroke-linecap="round" stroke-miterlimit="3"/></g><g><path d="M 337.836 112.793 L 335.501 135.293 C 335.243 137.776 333.018 139.583 330.535 139.326 L 56.057 110.844 C 53.574 110.586 51.767 108.361 52.024 105.877 L 54.359 83.377 C 54.617 80.894 56.842 79.087 59.325 79.344 L 333.803 107.826 C 336.286 108.084 338.093 110.309 337.836 112.793 Z" style="stroke:none;fill:#474F54;stroke-miterlimit:10;"/><path d="M 284.042 89.62 L 315.008 89.62 C 317.697 89.62 319.88 91.803 319.88 94.492 L 319.88 347.128 C 319.88 349.817 317.697 352 315.008 352 L 284.042 352 C 281.353 352 279.17 349.817 279.17 347.128 L 279.17 94.492 C 279.17 91.803 281.353 89.62 284.042 89.62 Z" style="stroke:none;fill:#474F54;stroke-miterlimit:10;"/><path d="M 217.356 106.921 L 222.94 103.087 C 224.875 101.758 227.526 102.25 228.854 104.186 L 296.753 203.075 C 298.082 205.01 297.59 207.66 295.654 208.989 L 290.07 212.823 C 288.135 214.152 285.484 213.66 284.156 211.724 L 216.257 112.835 C 214.928 110.9 215.42 108.25 217.356 106.921 Z" style="stroke:none;fill:#474F54;stroke-miterlimit:10;"/></g></g><g><path d="M 205 24.89 L 369 24.89 L 369 43 L 205 43 C 202.24 43 200 40.759 200 37.999 L 200 29.891 C 200 27.131 202.24 24.89 205 24.89 Z" style="stroke:none;fill:#5B6368;stroke-miterlimit:10;"/><path d="M 31 24.89 L 194.863 24.89 C 197.698 24.89 200 27.192 200 30.028 L 200 37.999 C 200 40.759 197.76 43 195 43 L 31 43 L 31 24.89 Z" style="stroke:none;fill:#5B6368;stroke-miterlimit:10;"/><rect x="31" y="0" width="338" height="43" transform="matrix(1,0,0,1,0,0)" fill="rgb(71,79,84)"/></g></g></svg>